<mxfile host="app.diagrams.net" modified="2021-07-01T06:14:47.231Z" agent="5.0 (Windows NT 10.0; Win64; x64) AppleWebKit/537.36 (KHTML, like Gecko) Chrome/91.0.4472.114 Safari/537.36 Edg/91.0.864.59" etag="dwYxiNdXg5okIgnswCQM" version="14.8.3" type="github">
  <diagram id="zH-_1CdU2DPZDz_4S6Dk" name="Page-1">
    <mxGraphModel dx="1108" dy="1172" grid="1" gridSize="10" guides="1" tooltips="1" connect="1" arrows="1" fold="1" page="1" pageScale="1" pageWidth="980" pageHeight="690" math="0" shadow="0">
      <root>
        <mxCell id="0" />
        <mxCell id="1" parent="0" />
        <mxCell id="WiCxdoFNektV1g-zQjOZ-8" value="&lt;h1&gt;&lt;font color=&quot;#1a1a1a&quot;&gt;按环境选择提供者&lt;/font&gt;&lt;/h1&gt;" style="rounded=1;whiteSpace=wrap;html=1;shadow=1;align=center;strokeColor=#314354;fontColor=#ffffff;fillColor=#FFFFFF;verticalAlign=top;" vertex="1" parent="1">
          <mxGeometry x="510" y="-30" width="420" height="350" as="geometry" />
        </mxCell>
        <mxCell id="WiCxdoFNektV1g-zQjOZ-7" value="&lt;h1&gt;&lt;font color=&quot;#000000&quot;&gt;按租户选择提供者&lt;/font&gt;&lt;/h1&gt;" style="rounded=1;whiteSpace=wrap;html=1;shadow=1;align=center;verticalAlign=top;" vertex="1" parent="1">
          <mxGeometry x="30" y="-30" width="410" height="330" as="geometry" />
        </mxCell>
        <mxCell id="WiCxdoFNektV1g-zQjOZ-3" value="" style="edgeStyle=orthogonalEdgeStyle;rounded=0;orthogonalLoop=1;jettySize=auto;html=1;" edge="1" parent="1" source="WiCxdoFNektV1g-zQjOZ-1" target="WiCxdoFNektV1g-zQjOZ-2">
          <mxGeometry relative="1" as="geometry" />
        </mxCell>
        <mxCell id="WiCxdoFNektV1g-zQjOZ-1" value="&lt;h3&gt;&lt;span&gt;获取提供者租户信息&lt;/span&gt;&lt;/h3&gt;&lt;span&gt;spring.cloud.zookeeper.discovery.metadata.tenant_id&lt;br&gt;&lt;/span&gt;" style="rounded=1;whiteSpace=wrap;html=1;shadow=1;fillColor=#ffcc99;strokeColor=#36393d;" vertex="1" parent="1">
          <mxGeometry x="80" y="30" width="310" height="60" as="geometry" />
        </mxCell>
        <mxCell id="WiCxdoFNektV1g-zQjOZ-6" value="" style="edgeStyle=orthogonalEdgeStyle;rounded=0;orthogonalLoop=1;jettySize=auto;html=1;" edge="1" parent="1" source="WiCxdoFNektV1g-zQjOZ-2" target="WiCxdoFNektV1g-zQjOZ-5">
          <mxGeometry relative="1" as="geometry" />
        </mxCell>
        <mxCell id="WiCxdoFNektV1g-zQjOZ-2" value="&lt;h3&gt;消费者提取自身部署租户属性&lt;/h3&gt;&lt;p&gt;jcf.app.deployment.tenant-id&lt;/p&gt;&lt;span style=&quot;color: rgba(0 , 0 , 0 , 0) ; font-family: monospace ; font-size: 0px&quot;&gt;%3CmxGraphModel%3E%3Croot%3E%3CmxCell%20id%3D%220%22%2F%3E%3CmxCell%20id%3D%221%22%20parent%3D%220%22%2F%3E%3CmxCell%20id%3D%222%22%20value%3D%22%26lt%3Bh3%26gt%3B%26lt%3Bspan%26gt%3B%E8%8E%B7%E5%8F%96%E6%8F%90%E4%BE%9B%E8%80%85%E7%A7%9F%E6%88%B7%E4%BF%A1%E6%81%AF%26lt%3B%2Fspan%26gt%3B%26lt%3B%2Fh3%26gt%3B%26lt%3Bspan%26gt%3Bspring.cloud.zookeeper.discovery.metadata.tenant_id%26lt%3Bbr%26gt%3B%26lt%3B%2Fspan%26gt%3B%22%20style%3D%22rounded%3D1%3BwhiteSpace%3Dwrap%3Bhtml%3D1%3B%22%20vertex%3D%221%22%20parent%3D%221%22%3E%3CmxGeometry%20x%3D%2280%22%20y%3D%2230%22%20width%3D%22310%22%20height%3D%2290%22%20as%3D%22geometry%22%2F%3E%3C%2FmxCell%3E%3C%2Froot%3E%3C%2FmxGraphModel%3Ess&lt;/span&gt;&lt;span&gt;&lt;font color=&quot;rgba(0, 0, 0, 0)&quot; face=&quot;monospace&quot;&gt;&lt;span style=&quot;font-size: 0px&quot;&gt;.app.deployment.tenant-id&lt;/span&gt;&lt;/font&gt;&lt;br&gt;&lt;/span&gt;" style="rounded=1;whiteSpace=wrap;html=1;shadow=1;fillColor=#ffcc99;strokeColor=#36393d;" vertex="1" parent="1">
          <mxGeometry x="80" y="120" width="310" height="70" as="geometry" />
        </mxCell>
        <mxCell id="WiCxdoFNektV1g-zQjOZ-15" value="" style="edgeStyle=entityRelationEdgeStyle;rounded=0;orthogonalLoop=1;jettySize=auto;html=1;entryX=0.003;entryY=0.383;entryDx=0;entryDy=0;entryPerimeter=0;strokeColor=#0000FF;" edge="1" parent="1" source="WiCxdoFNektV1g-zQjOZ-5" target="WiCxdoFNektV1g-zQjOZ-9">
          <mxGeometry relative="1" as="geometry" />
        </mxCell>
        <mxCell id="WiCxdoFNektV1g-zQjOZ-5" value="&lt;h3&gt;消费者选择与自身部署租户相同的提供者&lt;/h3&gt;&lt;span&gt;&lt;font color=&quot;rgba(0, 0, 0, 0)&quot; face=&quot;monospace&quot;&gt;&lt;span style=&quot;font-size: 0px&quot;&gt;.app.deployment.tenant-id&lt;/span&gt;&lt;/font&gt;&lt;br&gt;&lt;/span&gt;" style="rounded=1;whiteSpace=wrap;html=1;shadow=1;fillColor=#ffcc99;strokeColor=#36393d;" vertex="1" parent="1">
          <mxGeometry x="80" y="220" width="310" height="60" as="geometry" />
        </mxCell>
        <mxCell id="WiCxdoFNektV1g-zQjOZ-12" value="" style="edgeStyle=orthogonalEdgeStyle;rounded=0;orthogonalLoop=1;jettySize=auto;html=1;" edge="1" parent="1" source="WiCxdoFNektV1g-zQjOZ-9" target="WiCxdoFNektV1g-zQjOZ-11">
          <mxGeometry relative="1" as="geometry" />
        </mxCell>
        <mxCell id="WiCxdoFNektV1g-zQjOZ-9" value="&lt;h3&gt;&lt;/h3&gt;&lt;h3&gt;&lt;span&gt;获取候服务管控写入的环境控制状态&lt;/span&gt;&amp;nbsp;&lt;/h3&gt;获取zk节点 /service/提供者应用名称&amp;nbsp;&lt;span&gt;控制数据&amp;nbsp;&amp;nbsp;&lt;/span&gt;" style="rounded=1;whiteSpace=wrap;html=1;shadow=1;fillColor=#ffcc99;strokeColor=#36393d;" vertex="1" parent="1">
          <mxGeometry x="550" y="30" width="310" height="60" as="geometry" />
        </mxCell>
        <mxCell id="WiCxdoFNektV1g-zQjOZ-14" value="" style="edgeStyle=orthogonalEdgeStyle;rounded=0;orthogonalLoop=1;jettySize=auto;html=1;" edge="1" parent="1" source="WiCxdoFNektV1g-zQjOZ-11" target="WiCxdoFNektV1g-zQjOZ-13">
          <mxGeometry relative="1" as="geometry" />
        </mxCell>
        <mxCell id="WiCxdoFNektV1g-zQjOZ-11" value="&lt;h3&gt;&lt;/h3&gt;&lt;h3&gt;&lt;span&gt;获取候选提供者应用注册的环境信息&lt;/span&gt;&amp;nbsp;&lt;/h3&gt;jcf.app.deployment.env&lt;span&gt;&amp;nbsp;&amp;nbsp;&lt;/span&gt;" style="rounded=1;whiteSpace=wrap;html=1;shadow=1;fillColor=#ffcc99;strokeColor=#36393d;" vertex="1" parent="1">
          <mxGeometry x="550" y="130" width="310" height="60" as="geometry" />
        </mxCell>
        <mxCell id="WiCxdoFNektV1g-zQjOZ-20" value="" style="edgeStyle=orthogonalEdgeStyle;rounded=0;orthogonalLoop=1;jettySize=auto;html=1;strokeColor=#0000FF;" edge="1" parent="1" source="WiCxdoFNektV1g-zQjOZ-13" target="WiCxdoFNektV1g-zQjOZ-16">
          <mxGeometry relative="1" as="geometry" />
        </mxCell>
        <mxCell id="WiCxdoFNektV1g-zQjOZ-13" value="&lt;h3&gt;消费者选择与管控平台控制状态一致的提供者&lt;/h3&gt;&lt;span&gt;&lt;font color=&quot;rgba(0, 0, 0, 0)&quot; face=&quot;monospace&quot;&gt;&lt;span style=&quot;font-size: 0px&quot;&gt;.app.deployment.tenant-id&lt;/span&gt;&lt;/font&gt;&lt;br&gt;&lt;/span&gt;" style="rounded=1;whiteSpace=wrap;html=1;shadow=1;fillColor=#ffcc99;strokeColor=#36393d;" vertex="1" parent="1">
          <mxGeometry x="550" y="220" width="310" height="60" as="geometry" />
        </mxCell>
        <mxCell id="WiCxdoFNektV1g-zQjOZ-16" value="&lt;h1&gt;&lt;font color=&quot;#1a1a1a&quot;&gt;按机房选择提供者&lt;/font&gt;&lt;/h1&gt;" style="rounded=1;whiteSpace=wrap;html=1;shadow=1;align=center;strokeColor=#314354;fontColor=#ffffff;fillColor=#FFFFFF;verticalAlign=top;" vertex="1" parent="1">
          <mxGeometry x="430" y="360" width="550" height="610" as="geometry" />
        </mxCell>
        <mxCell id="WiCxdoFNektV1g-zQjOZ-19" value="" style="edgeStyle=orthogonalEdgeStyle;rounded=0;orthogonalLoop=1;jettySize=auto;html=1;" edge="1" parent="1" source="WiCxdoFNektV1g-zQjOZ-17" target="WiCxdoFNektV1g-zQjOZ-18">
          <mxGeometry relative="1" as="geometry" />
        </mxCell>
        <mxCell id="WiCxdoFNektV1g-zQjOZ-17" value="&lt;h3&gt;消费者获取自身部署的机房属性&lt;/h3&gt;&lt;div&gt;jcf.app.deployment.zone&lt;/div&gt;&lt;span&gt;&lt;font color=&quot;rgba(0, 0, 0, 0)&quot; face=&quot;monospace&quot;&gt;&lt;span style=&quot;font-size: 0px&quot;&gt;.app.deployment.tenant-id&lt;/span&gt;&lt;/font&gt;&lt;br&gt;&lt;/span&gt;" style="rounded=1;whiteSpace=wrap;html=1;shadow=1;fillColor=#ffcc99;strokeColor=#36393d;" vertex="1" parent="1">
          <mxGeometry x="555" y="430" width="310" height="60" as="geometry" />
        </mxCell>
        <mxCell id="WiCxdoFNektV1g-zQjOZ-22" value="" style="edgeStyle=orthogonalEdgeStyle;rounded=0;orthogonalLoop=1;jettySize=auto;html=1;" edge="1" parent="1" source="WiCxdoFNektV1g-zQjOZ-18" target="WiCxdoFNektV1g-zQjOZ-21">
          <mxGeometry relative="1" as="geometry" />
        </mxCell>
        <mxCell id="WiCxdoFNektV1g-zQjOZ-18" value="&lt;h3&gt;消费者获取提供者的机房属性&lt;/h3&gt;&lt;div&gt;&lt;/div&gt;spring.cloud.zookeeper.discovery.metadata.zone&lt;span&gt;&lt;font color=&quot;rgba(0, 0, 0, 0)&quot; face=&quot;monospace&quot;&gt;&lt;span style=&quot;font-size: 0px&quot;&gt;.app.deployment.tenant-id&lt;/span&gt;&lt;/font&gt;&lt;br&gt;&lt;/span&gt;" style="rounded=1;whiteSpace=wrap;html=1;shadow=1;fillColor=#ffcc99;strokeColor=#36393d;" vertex="1" parent="1">
          <mxGeometry x="555" y="520" width="310" height="60" as="geometry" />
        </mxCell>
        <mxCell id="WiCxdoFNektV1g-zQjOZ-24" value="" style="edgeStyle=orthogonalEdgeStyle;rounded=0;orthogonalLoop=1;jettySize=auto;html=1;strokeColor=#000000;" edge="1" parent="1" source="WiCxdoFNektV1g-zQjOZ-21" target="WiCxdoFNektV1g-zQjOZ-23">
          <mxGeometry relative="1" as="geometry" />
        </mxCell>
        <mxCell id="WiCxdoFNektV1g-zQjOZ-21" value="&lt;h3&gt;&lt;/h3&gt;&lt;h3&gt;消费者&lt;font color=&quot;#ff3333&quot;&gt;尝试&lt;/font&gt;选择与自身部署机房相同的提供者(注册属性非HOSTIP)&lt;/h3&gt;&lt;br&gt;&lt;font color=&quot;rgba(0, 0, 0, 0)&quot; face=&quot;monospace&quot;&gt;&lt;span style=&quot;font-size: 0px&quot;&gt;.app.deployment.tenant-id&lt;/span&gt;&lt;/font&gt;&lt;span&gt;&lt;br&gt;&lt;/span&gt;" style="rounded=1;whiteSpace=wrap;html=1;shadow=1;fillColor=#ffcc99;strokeColor=#36393d;" vertex="1" parent="1">
          <mxGeometry x="515" y="620" width="390" height="60" as="geometry" />
        </mxCell>
        <mxCell id="WiCxdoFNektV1g-zQjOZ-29" value="是" style="edgeStyle=orthogonalEdgeStyle;rounded=0;orthogonalLoop=1;jettySize=auto;html=1;strokeColor=#000000;exitX=1;exitY=0.5;exitDx=0;exitDy=0;" edge="1" parent="1" source="WiCxdoFNektV1g-zQjOZ-23" target="WiCxdoFNektV1g-zQjOZ-28">
          <mxGeometry relative="1" as="geometry" />
        </mxCell>
        <mxCell id="WiCxdoFNektV1g-zQjOZ-32" value="否" style="edgeStyle=orthogonalEdgeStyle;rounded=0;orthogonalLoop=1;jettySize=auto;html=1;strokeColor=#000000;exitX=0;exitY=0.5;exitDx=0;exitDy=0;" edge="1" parent="1" source="WiCxdoFNektV1g-zQjOZ-23" target="WiCxdoFNektV1g-zQjOZ-30">
          <mxGeometry relative="1" as="geometry">
            <mxPoint x="650" y="765" as="sourcePoint" />
            <mxPoint x="580" y="765" as="targetPoint" />
          </mxGeometry>
        </mxCell>
        <mxCell id="WiCxdoFNektV1g-zQjOZ-23" value="能找到相同&lt;br&gt;机房的提供者？" style="rhombus;whiteSpace=wrap;html=1;rounded=1;shadow=1;fillColor=#fa6800;align=center;verticalAlign=middle;strokeColor=#C73500;fontColor=#000000;" vertex="1" parent="1">
          <mxGeometry x="655" y="710" width="110" height="110" as="geometry" />
        </mxCell>
        <mxCell id="WiCxdoFNektV1g-zQjOZ-26" value="" style="edgeStyle=orthogonalEdgeStyle;rounded=0;orthogonalLoop=1;jettySize=auto;html=1;strokeColor=#000000;" edge="1" parent="1" source="WiCxdoFNektV1g-zQjOZ-25" target="WiCxdoFNektV1g-zQjOZ-1">
          <mxGeometry relative="1" as="geometry" />
        </mxCell>
        <mxCell id="WiCxdoFNektV1g-zQjOZ-25" value="&lt;h2&gt;&lt;font color=&quot;#ffffff&quot;&gt;开始&lt;/font&gt;&lt;/h2&gt;" style="rounded=1;whiteSpace=wrap;html=1;shadow=1;gradientColor=none;align=center;verticalAlign=middle;fillColor=#000000;" vertex="1" parent="1">
          <mxGeometry x="175" y="-120" width="120" height="50" as="geometry" />
        </mxCell>
        <mxCell id="WiCxdoFNektV1g-zQjOZ-27" value="&lt;h2&gt;&lt;font color=&quot;#ffffff&quot;&gt;开始&lt;/font&gt;&lt;/h2&gt;" style="rounded=1;whiteSpace=wrap;html=1;shadow=1;gradientColor=none;align=center;verticalAlign=middle;fillColor=#000000;" vertex="1" parent="1">
          <mxGeometry x="792.5" y="990" width="120" height="50" as="geometry" />
        </mxCell>
        <mxCell id="WiCxdoFNektV1g-zQjOZ-35" value="" style="edgeStyle=orthogonalEdgeStyle;rounded=0;orthogonalLoop=1;jettySize=auto;html=1;strokeColor=#000000;" edge="1" parent="1" source="WiCxdoFNektV1g-zQjOZ-28">
          <mxGeometry relative="1" as="geometry">
            <mxPoint x="852.5" y="990" as="targetPoint" />
          </mxGeometry>
        </mxCell>
        <mxCell id="WiCxdoFNektV1g-zQjOZ-28" value="&lt;h3&gt;&lt;/h3&gt;&lt;h3&gt;&lt;/h3&gt;&lt;h3&gt;&lt;span&gt;最终选取的提供者信息&lt;/span&gt;&lt;/h3&gt;" style="rounded=1;whiteSpace=wrap;html=1;shadow=1;fillColor=#ffcc99;strokeColor=#36393d;" vertex="1" parent="1">
          <mxGeometry x="740" y="850" width="225" height="60" as="geometry" />
        </mxCell>
        <mxCell id="WiCxdoFNektV1g-zQjOZ-33" value="" style="edgeStyle=orthogonalEdgeStyle;rounded=0;orthogonalLoop=1;jettySize=auto;html=1;strokeColor=#000000;" edge="1" parent="1" source="WiCxdoFNektV1g-zQjOZ-30" target="WiCxdoFNektV1g-zQjOZ-28">
          <mxGeometry relative="1" as="geometry" />
        </mxCell>
        <mxCell id="WiCxdoFNektV1g-zQjOZ-30" value="&lt;h3&gt;&lt;/h3&gt;&lt;h3&gt;&lt;/h3&gt;&lt;h3&gt;&lt;br&gt;&lt;/h3&gt;&lt;h3&gt;消费者&lt;font color=&quot;#ff3333&quot;&gt;尝试&lt;/font&gt;选择与自身部署机房相不同的提供者且注册属性为HOSTIP&lt;/h3&gt;&lt;h3&gt;&lt;br style=&quot;font-size: 12px ; font-weight: 400&quot;&gt;&lt;font color=&quot;rgba(0, 0, 0, 0)&quot; face=&quot;monospace&quot; style=&quot;font-size: 12px ; font-weight: 400&quot;&gt;&lt;span style=&quot;font-size: 0px&quot;&gt;.app.deployment.tenant-id&lt;/span&gt;&lt;/font&gt;&lt;br&gt;&lt;/h3&gt;" style="rounded=1;whiteSpace=wrap;html=1;shadow=1;fillColor=#b0e3e6;strokeColor=#0e8088;" vertex="1" parent="1">
          <mxGeometry x="460" y="850" width="225" height="60" as="geometry" />
        </mxCell>
      </root>
    </mxGraphModel>
  </diagram>
</mxfile>
